<svg width="250" height="30" viewBox="0 0 250 30" fill="none" xmlns="http://www.w3.org/2000/svg">
<path d="M6 12C6 12 6 24 12 24C18 24 18 12 18 12" stroke="#CC2B52" stroke-width="2"/>
<path d="M24 18C24 18 24 6 18 6C12 6 12 18 12 18" stroke="black" stroke-width="2"/>
<line x1="12" y1="20" x2="12" y2="23" stroke="#CC2B52" stroke-width="2"/>
<line x1="18" y1="7" x2="18" y2="10" stroke="black" stroke-width="2"/>
<path d="M40.5957 9.10742L42.9951 15.6289L45.5928 9.10742H48.2246L44.4512 18.5H41.6348L39.1807 12.1836L36.7334 18.5H33.917L30.1367 9.10742H32.7754L35.3184 15.4922L37.7725 9.10742H40.5957ZM60.249 18.0352C59.4788 18.2904 58.7087 18.4727 57.9385 18.582C57.1729 18.696 56.389 18.7529 55.5869 18.7529C54.5615 18.7529 53.6478 18.6436 52.8457 18.4248C52.0482 18.2015 51.376 17.8802 50.8291 17.4609C50.2822 17.0417 49.8652 16.529 49.5781 15.9229C49.291 15.3167 49.1475 14.6309 49.1475 13.8652C49.1475 13.1543 49.291 12.4958 49.5781 11.8896C49.8698 11.279 50.2799 10.7503 50.8086 10.3037C51.3418 9.85254 51.9844 9.50163 52.7363 9.25098C53.4883 8.99577 54.3268 8.86816 55.252 8.86816C56.1042 8.86816 56.8835 8.98438 57.5898 9.2168C58.3008 9.44466 58.9092 9.78418 59.415 10.2354C59.9255 10.6865 60.3197 11.2425 60.5977 11.9033C60.8802 12.5641 61.0215 13.3252 61.0215 14.1865V14.8154H51.7656C51.8477 15.1117 51.9821 15.3828 52.1689 15.6289C52.3604 15.875 52.6178 16.0846 52.9414 16.2578C53.265 16.431 53.6615 16.5654 54.1309 16.6611C54.6048 16.7568 55.1699 16.8047 55.8262 16.8047C56.291 16.8047 56.7467 16.7773 57.1934 16.7227C57.64 16.6634 58.057 16.5882 58.4443 16.4971C58.8317 16.4014 59.1803 16.2965 59.4902 16.1826C59.8047 16.0687 60.0576 15.9548 60.249 15.8408V18.0352ZM58.499 12.9561C58.4762 12.7236 58.4056 12.4844 58.2871 12.2383C58.1732 11.9876 57.9909 11.762 57.7402 11.5615C57.4896 11.361 57.1615 11.1969 56.7559 11.0693C56.3503 10.9372 55.8444 10.8711 55.2383 10.8711C54.6686 10.8711 54.1764 10.9417 53.7617 11.083C53.347 11.2243 52.9984 11.3997 52.7158 11.6094C52.4378 11.819 52.2214 12.0446 52.0664 12.2861C51.9115 12.5277 51.8112 12.751 51.7656 12.9561H58.499ZM65.8613 9.10742V10.1396C66.0846 9.99837 66.3262 9.85254 66.5859 9.70215C66.8503 9.55176 67.1351 9.41504 67.4404 9.29199C67.7503 9.16895 68.0807 9.06868 68.4316 8.99121C68.7871 8.90918 69.1699 8.86816 69.5801 8.86816C69.9811 8.86816 70.332 8.91146 70.6328 8.99805C70.9336 9.08008 71.1934 9.18945 71.4121 9.32617C71.6354 9.45833 71.8245 9.60872 71.9795 9.77734C72.1344 9.94141 72.2689 10.1055 72.3828 10.2695C72.7064 10.0599 73.0254 9.86849 73.3398 9.69531C73.6543 9.52214 73.971 9.37402 74.29 9.25098C74.609 9.12793 74.9349 9.03451 75.2676 8.9707C75.6003 8.90234 75.9466 8.86816 76.3066 8.86816C76.8809 8.86816 77.3936 8.94792 77.8447 9.10742C78.3005 9.26693 78.6855 9.48568 79 9.76367C79.3145 10.0417 79.5537 10.3698 79.7178 10.748C79.8864 11.1217 79.9707 11.5228 79.9707 11.9512V18.5H77.4346V12.3135C77.4346 12.0628 77.3958 11.8464 77.3184 11.6641C77.2409 11.4818 77.1361 11.3337 77.0039 11.2197C76.8763 11.1058 76.7236 11.0215 76.5459 10.9668C76.3727 10.9121 76.1882 10.8848 75.9922 10.8848C75.0807 10.8848 74.0417 11.2949 72.875 12.1152C72.8887 12.1927 72.8978 12.2839 72.9023 12.3887C72.9115 12.4935 72.916 12.5983 72.916 12.7031V18.5H70.3799V12.2588C70.3799 12.0081 70.3411 11.7962 70.2637 11.623C70.1862 11.4453 70.0791 11.3018 69.9424 11.1924C69.8102 11.083 69.6553 11.0055 69.4775 10.96C69.3044 10.9098 69.1198 10.8848 68.9238 10.8848C68.6868 10.8848 68.4362 10.9189 68.1719 10.9873C67.9121 11.0557 67.6478 11.1514 67.3789 11.2744C67.1146 11.3975 66.8525 11.5433 66.5928 11.7119C66.3376 11.8805 66.0938 12.0628 65.8613 12.2588V18.5H63.3252V9.10742H65.8613ZM90.8398 18.5V17.5771C90.5163 17.7549 90.1676 17.9121 89.7939 18.0488C89.4248 18.1855 89.0397 18.3018 88.6387 18.3975C88.2376 18.4932 87.8229 18.5638 87.3945 18.6094C86.9707 18.6595 86.5423 18.6846 86.1094 18.6846C85.6035 18.6846 85.1136 18.6367 84.6396 18.541C84.1702 18.4453 83.7533 18.2904 83.3887 18.0762C83.0241 17.862 82.7301 17.5817 82.5068 17.2354C82.2881 16.889 82.1787 16.4652 82.1787 15.9639C82.1787 15.3304 82.3519 14.804 82.6982 14.3848C83.0446 13.9609 83.5732 13.6146 84.2842 13.3457C84.9951 13.0768 85.8929 12.8695 86.9775 12.7236C88.0667 12.5778 89.3542 12.4639 90.8398 12.3818V12.1836C90.8398 12.0286 90.7988 11.876 90.7168 11.7256C90.6348 11.5706 90.4844 11.4362 90.2656 11.3223C90.0514 11.2038 89.7552 11.1081 89.377 11.0352C89.0033 10.9622 88.5247 10.9258 87.9414 10.9258C87.4811 10.9258 87.0254 10.9508 86.5742 11.001C86.1276 11.0465 85.6947 11.1104 85.2754 11.1924C84.8607 11.2744 84.4665 11.3701 84.0928 11.4795C83.7191 11.5889 83.3796 11.7028 83.0742 11.8213V9.56543C83.3932 9.4834 83.751 9.40365 84.1475 9.32617C84.5439 9.2487 84.9564 9.18262 85.3848 9.12793C85.8132 9.06868 86.2461 9.02311 86.6836 8.99121C87.1211 8.95475 87.5404 8.93652 87.9414 8.93652C88.7298 8.93652 89.4567 9.0026 90.1221 9.13477C90.7874 9.26237 91.3594 9.46289 91.8379 9.73633C92.321 10.0098 92.6969 10.3561 92.9658 10.7754C93.2393 11.1947 93.376 11.6937 93.376 12.2725V18.5H90.8398ZM90.8398 14.2139C89.8646 14.2503 89.0352 14.3027 88.3516 14.3711C87.6725 14.4395 87.1074 14.5192 86.6562 14.6104C86.2051 14.7015 85.8496 14.7995 85.5898 14.9043C85.3346 15.0091 85.1432 15.1162 85.0156 15.2256C84.888 15.335 84.8083 15.4443 84.7764 15.5537C84.749 15.6631 84.7354 15.7633 84.7354 15.8545C84.7354 15.9639 84.765 16.071 84.8242 16.1758C84.8835 16.276 84.986 16.3649 85.1318 16.4424C85.2822 16.5199 85.4805 16.5814 85.7266 16.627C85.9727 16.6725 86.2826 16.6953 86.6562 16.6953C87.071 16.6953 87.4766 16.6634 87.873 16.5996C88.2695 16.5358 88.6455 16.4492 89.001 16.3398C89.3564 16.2259 89.6891 16.0938 89.999 15.9434C90.3135 15.7884 90.5938 15.6243 90.8398 15.4512V14.2139ZM105.195 18.5C105.15 17.9896 105.027 17.543 104.826 17.1602C104.626 16.7728 104.373 16.4401 104.067 16.1621C103.767 15.8841 103.425 15.654 103.042 15.4717C102.664 15.2894 102.274 15.1458 101.873 15.041C101.472 14.9316 101.071 14.8564 100.67 14.8154C100.273 14.7699 99.9043 14.7471 99.5625 14.7471H98.8105V18.5H96.2744V9.10742H98.8105V12.7305H99.3301C99.681 12.7305 100.048 12.7031 100.431 12.6484C100.813 12.5938 101.192 12.5072 101.565 12.3887C101.944 12.2702 102.306 12.1175 102.652 11.9307C102.999 11.7438 103.309 11.516 103.582 11.2471C103.855 10.9782 104.083 10.6683 104.266 10.3174C104.448 9.96191 104.562 9.55859 104.607 9.10742H107.191C107.146 9.60417 107.046 10.0531 106.891 10.4541C106.74 10.8551 106.551 11.2152 106.323 11.5342C106.1 11.8486 105.849 12.1243 105.571 12.3613C105.293 12.5983 105.008 12.8034 104.717 12.9766C104.425 13.1452 104.133 13.2865 103.842 13.4004C103.555 13.5098 103.286 13.5941 103.035 13.6533C103.354 13.7035 103.685 13.7832 104.026 13.8926C104.373 13.9974 104.715 14.1387 105.052 14.3164C105.389 14.4896 105.71 14.7038 106.016 14.959C106.326 15.2142 106.604 15.5127 106.85 15.8545C107.096 16.1963 107.301 16.5859 107.465 17.0234C107.629 17.4609 107.734 17.9531 107.779 18.5H105.195ZM120.433 18.0352C119.662 18.2904 118.892 18.4727 118.122 18.582C117.356 18.696 116.573 18.7529 115.771 18.7529C114.745 18.7529 113.831 18.6436 113.029 18.4248C112.232 18.2015 111.56 17.8802 111.013 17.4609C110.466 17.0417 110.049 16.529 109.762 15.9229C109.475 15.3167 109.331 14.6309 109.331 13.8652C109.331 13.1543 109.475 12.4958 109.762 11.8896C110.053 11.279 110.464 10.7503 110.992 10.3037C111.525 9.85254 112.168 9.50163 112.92 9.25098C113.672 8.99577 114.51 8.86816 115.436 8.86816C116.288 8.86816 117.067 8.98438 117.773 9.2168C118.484 9.44466 119.093 9.78418 119.599 10.2354C120.109 10.6865 120.503 11.2425 120.781 11.9033C121.064 12.5641 121.205 13.3252 121.205 14.1865V14.8154H111.949C112.031 15.1117 112.166 15.3828 112.353 15.6289C112.544 15.875 112.801 16.0846 113.125 16.2578C113.449 16.431 113.845 16.5654 114.314 16.6611C114.788 16.7568 115.354 16.8047 116.01 16.8047C116.475 16.8047 116.93 16.7773 117.377 16.7227C117.824 16.6634 118.241 16.5882 118.628 16.4971C119.015 16.4014 119.364 16.2965 119.674 16.1826C119.988 16.0687 120.241 15.9548 120.433 15.8408V18.0352ZM118.683 12.9561C118.66 12.7236 118.589 12.4844 118.471 12.2383C118.357 11.9876 118.174 11.762 117.924 11.5615C117.673 11.361 117.345 11.1969 116.939 11.0693C116.534 10.9372 116.028 10.8711 115.422 10.8711C114.852 10.8711 114.36 10.9417 113.945 11.083C113.531 11.2243 113.182 11.3997 112.899 11.6094C112.621 11.819 112.405 12.0446 112.25 12.2861C112.095 12.5277 111.995 12.751 111.949 12.9561H118.683ZM135.663 13.8105C135.663 14.6172 135.515 15.3304 135.219 15.9502C134.923 16.5654 134.499 17.0804 133.947 17.4951C133.396 17.9098 132.726 18.2243 131.938 18.4385C131.154 18.6481 130.272 18.7529 129.292 18.7529C128.312 18.7529 127.426 18.6481 126.633 18.4385C125.844 18.2243 125.172 17.9098 124.616 17.4951C124.06 17.0804 123.632 16.5654 123.331 15.9502C123.03 15.3304 122.88 14.6172 122.88 13.8105C122.88 13.0039 123.03 12.293 123.331 11.6777C123.632 11.0579 124.06 10.5407 124.616 10.126C125.172 9.71126 125.844 9.39909 126.633 9.18945C127.426 8.97526 128.312 8.86816 129.292 8.86816C130.272 8.86816 131.154 8.97526 131.938 9.18945C132.726 9.39909 133.396 9.71126 133.947 10.126C134.499 10.5407 134.923 11.0579 135.219 11.6777C135.515 12.293 135.663 13.0039 135.663 13.8105ZM133.1 13.8105C133.1 13.4596 133.043 13.111 132.929 12.7646C132.819 12.4137 132.621 12.0993 132.334 11.8213C132.051 11.5433 131.664 11.3177 131.172 11.1445C130.68 10.9714 130.053 10.8848 129.292 10.8848C128.782 10.8848 128.333 10.9258 127.945 11.0078C127.558 11.0853 127.223 11.1947 126.94 11.3359C126.658 11.4772 126.421 11.6436 126.229 11.835C126.038 12.0218 125.885 12.2246 125.771 12.4434C125.658 12.6576 125.576 12.8831 125.525 13.1201C125.48 13.3525 125.457 13.5827 125.457 13.8105C125.457 14.043 125.48 14.2777 125.525 14.5146C125.576 14.7516 125.658 14.9795 125.771 15.1982C125.885 15.4124 126.038 15.613 126.229 15.7998C126.421 15.9867 126.658 16.1507 126.94 16.292C127.223 16.4287 127.558 16.5381 127.945 16.6201C128.333 16.6976 128.782 16.7363 129.292 16.7363C130.053 16.7363 130.68 16.6497 131.172 16.4766C131.664 16.3034 132.051 16.0778 132.334 15.7998C132.621 15.5218 132.819 15.2096 132.929 14.8633C133.043 14.5124 133.1 14.1615 133.1 13.8105ZM144.14 18.5H141.187L136.436 9.10742H139.266L142.684 16.1758L146.095 9.10742H148.925L144.14 18.5ZM160.806 18.0352C160.035 18.2904 159.265 18.4727 158.495 18.582C157.729 18.696 156.946 18.7529 156.144 18.7529C155.118 18.7529 154.204 18.6436 153.402 18.4248C152.605 18.2015 151.933 17.8802 151.386 17.4609C150.839 17.0417 150.422 16.529 150.135 15.9229C149.848 15.3167 149.704 14.6309 149.704 13.8652C149.704 13.1543 149.848 12.4958 150.135 11.8896C150.426 11.279 150.837 10.7503 151.365 10.3037C151.898 9.85254 152.541 9.50163 153.293 9.25098C154.045 8.99577 154.883 8.86816 155.809 8.86816C156.661 8.86816 157.44 8.98438 158.146 9.2168C158.857 9.44466 159.466 9.78418 159.972 10.2354C160.482 10.6865 160.876 11.2425 161.154 11.9033C161.437 12.5641 161.578 13.3252 161.578 14.1865V14.8154H152.322C152.404 15.1117 152.539 15.3828 152.726 15.6289C152.917 15.875 153.174 16.0846 153.498 16.2578C153.822 16.431 154.218 16.5654 154.688 16.6611C155.161 16.7568 155.727 16.8047 156.383 16.8047C156.848 16.8047 157.303 16.7773 157.75 16.7227C158.197 16.6634 158.614 16.5882 159.001 16.4971C159.388 16.4014 159.737 16.2965 160.047 16.1826C160.361 16.0687 160.614 15.9548 160.806 15.8408V18.0352ZM159.056 12.9561C159.033 12.7236 158.962 12.4844 158.844 12.2383C158.73 11.9876 158.548 11.762 158.297 11.5615C158.046 11.361 157.718 11.1969 157.312 11.0693C156.907 10.9372 156.401 10.8711 155.795 10.8711C155.225 10.8711 154.733 10.9417 154.318 11.083C153.904 11.2243 153.555 11.3997 153.272 11.6094C152.994 11.819 152.778 12.0446 152.623 12.2861C152.468 12.5277 152.368 12.751 152.322 12.9561H159.056ZM172.522 11.2334C172.454 11.2106 172.354 11.181 172.222 11.1445C172.094 11.1035 171.944 11.0648 171.771 11.0283C171.597 10.9873 171.406 10.9531 171.196 10.9258C170.991 10.8984 170.779 10.8848 170.561 10.8848C170.105 10.8848 169.679 10.9417 169.282 11.0557C168.89 11.165 168.523 11.3132 168.182 11.5C167.84 11.6823 167.521 11.8919 167.225 12.1289C166.933 12.3613 166.664 12.6006 166.418 12.8467V18.5H163.882V9.10742H166.418V10.6318C166.723 10.404 167.035 10.1852 167.354 9.97559C167.678 9.76139 168.013 9.57227 168.359 9.4082C168.71 9.24414 169.079 9.11426 169.467 9.01855C169.854 8.91829 170.264 8.86816 170.697 8.86816C170.861 8.86816 171.028 8.87728 171.196 8.89551C171.369 8.90918 171.536 8.92741 171.695 8.9502C171.859 8.97298 172.012 8.99805 172.153 9.02539C172.295 9.05273 172.418 9.08008 172.522 9.10742V11.2334ZM186.946 16.7227H181.71L180.828 18.5H177.998L182.913 9.10742H185.743L190.658 18.5H187.828L186.946 16.7227ZM182.619 14.8906H186.051L184.342 11.4316L182.619 14.8906ZM203.701 13.7969C203.701 14.3984 203.635 14.9339 203.503 15.4033C203.371 15.8682 203.184 16.2738 202.942 16.6201C202.705 16.9665 202.418 17.2604 202.081 17.502C201.748 17.7435 201.377 17.9372 200.967 18.083C200.557 18.2288 200.115 18.3359 199.641 18.4043C199.167 18.4681 198.672 18.5 198.157 18.5H192.196V9.10742H198.144C198.659 9.10742 199.153 9.1416 199.627 9.20996C200.101 9.27376 200.543 9.37858 200.953 9.52441C201.368 9.67025 201.744 9.86393 202.081 10.1055C202.418 10.3424 202.705 10.6364 202.942 10.9873C203.184 11.3337 203.371 11.7393 203.503 12.2041C203.635 12.6689 203.701 13.1999 203.701 13.7969ZM201.145 13.7969C201.145 13.3457 201.085 12.9538 200.967 12.6211C200.853 12.2884 200.666 12.015 200.406 11.8008C200.151 11.582 199.816 11.4202 199.401 11.3154C198.987 11.2061 198.481 11.1514 197.884 11.1514H194.732V16.4561H197.884C198.481 16.4561 198.987 16.4036 199.401 16.2988C199.816 16.1895 200.151 16.0254 200.406 15.8066C200.666 15.5833 200.853 15.3053 200.967 14.9727C201.085 14.64 201.145 14.248 201.145 13.7969ZM208.555 9.10742V10.1396C208.778 9.99837 209.02 9.85254 209.279 9.70215C209.544 9.55176 209.828 9.41504 210.134 9.29199C210.444 9.16895 210.774 9.06868 211.125 8.99121C211.48 8.90918 211.863 8.86816 212.273 8.86816C212.674 8.86816 213.025 8.91146 213.326 8.99805C213.627 9.08008 213.887 9.18945 214.105 9.32617C214.329 9.45833 214.518 9.60872 214.673 9.77734C214.828 9.94141 214.962 10.1055 215.076 10.2695C215.4 10.0599 215.719 9.86849 216.033 9.69531C216.348 9.52214 216.664 9.37402 216.983 9.25098C217.302 9.12793 217.628 9.03451 217.961 8.9707C218.294 8.90234 218.64 8.86816 219 8.86816C219.574 8.86816 220.087 8.94792 220.538 9.10742C220.994 9.26693 221.379 9.48568 221.693 9.76367C222.008 10.0417 222.247 10.3698 222.411 10.748C222.58 11.1217 222.664 11.5228 222.664 11.9512V18.5H220.128V12.3135C220.128 12.0628 220.089 11.8464 220.012 11.6641C219.934 11.4818 219.829 11.3337 219.697 11.2197C219.57 11.1058 219.417 11.0215 219.239 10.9668C219.066 10.9121 218.882 10.8848 218.686 10.8848C217.774 10.8848 216.735 11.2949 215.568 12.1152C215.582 12.1927 215.591 12.2839 215.596 12.3887C215.605 12.4935 215.609 12.5983 215.609 12.7031V18.5H213.073V12.2588C213.073 12.0081 213.035 11.7962 212.957 11.623C212.88 11.4453 212.772 11.3018 212.636 11.1924C212.504 11.083 212.349 11.0055 212.171 10.96C211.998 10.9098 211.813 10.8848 211.617 10.8848C211.38 10.8848 211.13 10.9189 210.865 10.9873C210.605 11.0557 210.341 11.1514 210.072 11.2744C209.808 11.3975 209.546 11.5433 209.286 11.7119C209.031 11.8805 208.787 12.0628 208.555 12.2588V18.5H206.019V9.10742H208.555ZM225.569 18.5V9.10742H228.105V18.5H225.569ZM240 18.5V13.2363C240 12.8854 239.97 12.5687 239.911 12.2861C239.852 11.999 239.74 11.7552 239.576 11.5547C239.417 11.3496 239.191 11.1924 238.899 11.083C238.612 10.9691 238.241 10.9121 237.785 10.9121C237.439 10.9121 237.074 10.96 236.691 11.0557C236.313 11.1468 235.937 11.2699 235.563 11.4248C235.19 11.5798 234.832 11.7598 234.49 11.9648C234.153 12.1699 233.852 12.3841 233.588 12.6074V18.5H231.052V9.10742H233.588V10.3926C233.907 10.2103 234.246 10.0303 234.606 9.85254C234.966 9.67025 235.349 9.50618 235.755 9.36035C236.16 9.21452 236.591 9.09603 237.047 9.00488C237.503 8.91374 237.983 8.86816 238.489 8.86816C239.123 8.86816 239.688 8.94564 240.185 9.10059C240.686 9.25098 241.11 9.46745 241.456 9.75C241.802 10.028 242.067 10.3675 242.249 10.7686C242.436 11.165 242.529 11.6094 242.529 12.1016V18.5H240Z" fill="#CC2B52"/>
</svg>
