<svg width="213" height="10" viewBox="0 0 213 10" fill="none" xmlns="http://www.w3.org/2000/svg">
<path d="M10.459 0.239258L12.8584 6.76074L15.4561 0.239258H18.0879L14.3145 9.63184H11.498L9.04395 3.31543L6.59668 9.63184H3.78027L0 0.239258H2.63867L5.18164 6.62402L7.63574 0.239258H10.459ZM30.1123 9.16699C29.3421 9.4222 28.5719 9.60449 27.8018 9.71387C27.0361 9.8278 26.2523 9.88477 25.4502 9.88477C24.4248 9.88477 23.5111 9.77539 22.709 9.55664C21.9115 9.33333 21.2393 9.01204 20.6924 8.59277C20.1455 8.1735 19.7285 7.66081 19.4414 7.05469C19.1543 6.44857 19.0107 5.7627 19.0107 4.99707C19.0107 4.28613 19.1543 3.6276 19.4414 3.02148C19.7331 2.41081 20.1432 1.88216 20.6719 1.43555C21.2051 0.984375 21.8477 0.633464 22.5996 0.382812C23.3516 0.127604 24.1901 0 25.1152 0C25.9674 0 26.7467 0.116211 27.4531 0.348633C28.1641 0.576497 28.7725 0.916016 29.2783 1.36719C29.7887 1.81836 30.1829 2.37435 30.4609 3.03516C30.7435 3.69596 30.8848 4.45703 30.8848 5.31836V5.94727H21.6289C21.7109 6.24349 21.8454 6.51465 22.0322 6.76074C22.2236 7.00684 22.4811 7.21647 22.8047 7.38965C23.1283 7.56283 23.5247 7.69727 23.9941 7.79297C24.4681 7.88867 25.0332 7.93652 25.6895 7.93652C26.1543 7.93652 26.61 7.90918 27.0566 7.85449C27.5033 7.79525 27.9202 7.72005 28.3076 7.62891C28.695 7.5332 29.0436 7.42839 29.3535 7.31445C29.668 7.20052 29.9209 7.08659 30.1123 6.97266V9.16699ZM28.3623 4.08789C28.3395 3.85547 28.2689 3.61621 28.1504 3.37012C28.0365 3.11947 27.8542 2.89388 27.6035 2.69336C27.3529 2.49284 27.0247 2.32878 26.6191 2.20117C26.2135 2.06901 25.7077 2.00293 25.1016 2.00293C24.5319 2.00293 24.0397 2.07357 23.625 2.21484C23.2103 2.35612 22.8617 2.53158 22.5791 2.74121C22.3011 2.95085 22.0846 3.17643 21.9297 3.41797C21.7747 3.65951 21.6745 3.88281 21.6289 4.08789H28.3623ZM35.7246 0.239258V1.27148C35.9479 1.13021 36.1895 0.984375 36.4492 0.833984C36.7135 0.683594 36.9984 0.546875 37.3037 0.423828C37.6136 0.300781 37.944 0.200521 38.2949 0.123047C38.6504 0.0410156 39.0332 0 39.4434 0C39.8444 0 40.1953 0.0432943 40.4961 0.129883C40.7969 0.211914 41.0566 0.321289 41.2754 0.458008C41.4987 0.590169 41.6878 0.74056 41.8428 0.90918C41.9977 1.07324 42.1322 1.2373 42.2461 1.40137C42.5697 1.19173 42.8887 1.00033 43.2031 0.827148C43.5176 0.653971 43.8343 0.505859 44.1533 0.382812C44.4723 0.259766 44.7982 0.166341 45.1309 0.102539C45.4635 0.0341797 45.8099 0 46.1699 0C46.7441 0 47.2568 0.0797526 47.708 0.239258C48.1637 0.398763 48.5488 0.617513 48.8633 0.895508C49.1777 1.1735 49.417 1.50163 49.5811 1.87988C49.7497 2.25358 49.834 2.65462 49.834 3.08301V9.63184H47.2979V3.44531C47.2979 3.19466 47.2591 2.97819 47.1816 2.7959C47.1042 2.61361 46.9993 2.46549 46.8672 2.35156C46.7396 2.23763 46.5869 2.15332 46.4092 2.09863C46.236 2.04395 46.0514 2.0166 45.8555 2.0166C44.944 2.0166 43.9049 2.42676 42.7383 3.24707C42.752 3.32454 42.7611 3.41569 42.7656 3.52051C42.7747 3.62533 42.7793 3.73014 42.7793 3.83496V9.63184H40.2432V3.39062C40.2432 3.13997 40.2044 2.92806 40.127 2.75488C40.0495 2.57715 39.9424 2.43359 39.8057 2.32422C39.6735 2.21484 39.5186 2.13737 39.3408 2.0918C39.1676 2.04167 38.9831 2.0166 38.7871 2.0166C38.5501 2.0166 38.2995 2.05078 38.0352 2.11914C37.7754 2.1875 37.5111 2.2832 37.2422 2.40625C36.9779 2.5293 36.7158 2.67513 36.4561 2.84375C36.2008 3.01237 35.957 3.19466 35.7246 3.39062V9.63184H33.1885V0.239258H35.7246ZM60.7031 9.63184V8.70898C60.3796 8.88672 60.0309 9.04395 59.6572 9.18066C59.2881 9.31738 58.903 9.43359 58.502 9.5293C58.1009 9.625 57.6862 9.69564 57.2578 9.74121C56.834 9.79134 56.4056 9.81641 55.9727 9.81641C55.4668 9.81641 54.9769 9.76855 54.5029 9.67285C54.0335 9.57715 53.6165 9.4222 53.252 9.20801C52.8874 8.99382 52.5934 8.71354 52.3701 8.36719C52.1514 8.02083 52.042 7.59701 52.042 7.0957C52.042 6.46224 52.2152 5.93587 52.5615 5.5166C52.9079 5.09277 53.4365 4.74642 54.1475 4.47754C54.8584 4.20866 55.7562 4.0013 56.8408 3.85547C57.93 3.70964 59.2174 3.5957 60.7031 3.51367V3.31543C60.7031 3.16048 60.6621 3.00781 60.5801 2.85742C60.498 2.70247 60.3477 2.56803 60.1289 2.4541C59.9147 2.33561 59.6185 2.23991 59.2402 2.16699C58.8665 2.09408 58.388 2.05762 57.8047 2.05762C57.3444 2.05762 56.8887 2.08268 56.4375 2.13281C55.9909 2.17839 55.5579 2.24219 55.1387 2.32422C54.724 2.40625 54.3298 2.50195 53.9561 2.61133C53.5824 2.7207 53.2428 2.83464 52.9375 2.95312V0.697266C53.2565 0.615234 53.6143 0.535482 54.0107 0.458008C54.4072 0.380534 54.8197 0.314453 55.248 0.259766C55.6764 0.200521 56.1094 0.154948 56.5469 0.123047C56.9844 0.0865885 57.4036 0.0683594 57.8047 0.0683594C58.5931 0.0683594 59.32 0.13444 59.9854 0.266602C60.6507 0.394206 61.2227 0.594727 61.7012 0.868164C62.1842 1.1416 62.5602 1.48796 62.8291 1.90723C63.1025 2.3265 63.2393 2.82552 63.2393 3.4043V9.63184H60.7031ZM60.7031 5.3457C59.7279 5.38216 58.8984 5.43457 58.2148 5.50293C57.5358 5.57129 56.9707 5.65104 56.5195 5.74219C56.0684 5.83333 55.7129 5.93132 55.4531 6.03613C55.1979 6.14095 55.0065 6.24805 54.8789 6.35742C54.7513 6.4668 54.6715 6.57617 54.6396 6.68555C54.6123 6.79492 54.5986 6.89518 54.5986 6.98633C54.5986 7.0957 54.6283 7.2028 54.6875 7.30762C54.7467 7.40788 54.8493 7.49674 54.9951 7.57422C55.1455 7.65169 55.3438 7.71322 55.5898 7.75879C55.8359 7.80436 56.1458 7.82715 56.5195 7.82715C56.9342 7.82715 57.3398 7.79525 57.7363 7.73145C58.1328 7.66764 58.5088 7.58105 58.8643 7.47168C59.2197 7.35775 59.5524 7.22559 59.8623 7.0752C60.1768 6.92025 60.457 6.75618 60.7031 6.58301V5.3457ZM75.0586 9.63184C75.013 9.12142 74.89 8.6748 74.6895 8.29199C74.4889 7.90462 74.236 7.57194 73.9307 7.29395C73.6299 7.01595 73.2881 6.78581 72.9053 6.60352C72.527 6.42122 72.1374 6.27767 71.7363 6.17285C71.3353 6.06348 70.9342 5.98828 70.5332 5.94727C70.1367 5.90169 69.7676 5.87891 69.4258 5.87891H68.6738V9.63184H66.1377V0.239258H68.6738V3.8623H69.1934C69.5443 3.8623 69.9111 3.83496 70.2939 3.78027C70.6768 3.72559 71.055 3.639 71.4287 3.52051C71.807 3.40202 72.1693 3.24935 72.5156 3.0625C72.862 2.87565 73.1719 2.64779 73.4453 2.37891C73.7188 2.11003 73.9466 1.80013 74.1289 1.44922C74.3112 1.09375 74.4251 0.69043 74.4707 0.239258H77.0547C77.0091 0.736003 76.9089 1.1849 76.7539 1.58594C76.6035 1.98698 76.4144 2.34701 76.1865 2.66602C75.9632 2.98047 75.7126 3.25618 75.4346 3.49316C75.1566 3.73014 74.8717 3.93522 74.5801 4.1084C74.2884 4.27702 73.9967 4.41829 73.7051 4.53223C73.418 4.6416 73.1491 4.72591 72.8984 4.78516C73.2174 4.83529 73.5479 4.91504 73.8896 5.02441C74.236 5.12923 74.5778 5.27051 74.915 5.44824C75.2523 5.62142 75.5736 5.83561 75.8789 6.09082C76.1888 6.34603 76.4668 6.64453 76.7129 6.98633C76.959 7.32812 77.1641 7.71777 77.3281 8.15527C77.4922 8.59277 77.597 9.08496 77.6426 9.63184H75.0586ZM90.2959 9.16699C89.5257 9.4222 88.7555 9.60449 87.9854 9.71387C87.2197 9.8278 86.4359 9.88477 85.6338 9.88477C84.6084 9.88477 83.6947 9.77539 82.8926 9.55664C82.0951 9.33333 81.4229 9.01204 80.876 8.59277C80.3291 8.1735 79.9121 7.66081 79.625 7.05469C79.3379 6.44857 79.1943 5.7627 79.1943 4.99707C79.1943 4.28613 79.3379 3.6276 79.625 3.02148C79.9167 2.41081 80.3268 1.88216 80.8555 1.43555C81.3887 0.984375 82.0312 0.633464 82.7832 0.382812C83.5352 0.127604 84.3737 0 85.2988 0C86.151 0 86.9303 0.116211 87.6367 0.348633C88.3477 0.576497 88.9561 0.916016 89.4619 1.36719C89.9723 1.81836 90.3665 2.37435 90.6445 3.03516C90.9271 3.69596 91.0684 4.45703 91.0684 5.31836V5.94727H81.8125C81.8945 6.24349 82.029 6.51465 82.2158 6.76074C82.4072 7.00684 82.6647 7.21647 82.9883 7.38965C83.3118 7.56283 83.7083 7.69727 84.1777 7.79297C84.6517 7.88867 85.2168 7.93652 85.873 7.93652C86.3379 7.93652 86.7936 7.90918 87.2402 7.85449C87.6868 7.79525 88.1038 7.72005 88.4912 7.62891C88.8786 7.5332 89.2272 7.42839 89.5371 7.31445C89.8516 7.20052 90.1045 7.08659 90.2959 6.97266V9.16699ZM88.5459 4.08789C88.5231 3.85547 88.4525 3.61621 88.334 3.37012C88.2201 3.11947 88.0378 2.89388 87.7871 2.69336C87.5365 2.49284 87.2083 2.32878 86.8027 2.20117C86.3971 2.06901 85.8913 2.00293 85.2852 2.00293C84.7155 2.00293 84.2233 2.07357 83.8086 2.21484C83.3939 2.35612 83.0452 2.53158 82.7627 2.74121C82.4847 2.95085 82.2682 3.17643 82.1133 3.41797C81.9583 3.65951 81.8581 3.88281 81.8125 4.08789H88.5459ZM105.526 4.94238C105.526 5.74902 105.378 6.46224 105.082 7.08203C104.786 7.69727 104.362 8.21224 103.811 8.62695C103.259 9.04167 102.589 9.35612 101.801 9.57031C101.017 9.77995 100.135 9.88477 99.1553 9.88477C98.1755 9.88477 97.2891 9.77995 96.4961 9.57031C95.7077 9.35612 95.0355 9.04167 94.4795 8.62695C93.9235 8.21224 93.4951 7.69727 93.1943 7.08203C92.8936 6.46224 92.7432 5.74902 92.7432 4.94238C92.7432 4.13574 92.8936 3.4248 93.1943 2.80957C93.4951 2.18978 93.9235 1.67253 94.4795 1.25781C95.0355 0.843099 95.7077 0.530924 96.4961 0.321289C97.2891 0.107096 98.1755 0 99.1553 0C100.135 0 101.017 0.107096 101.801 0.321289C102.589 0.530924 103.259 0.843099 103.811 1.25781C104.362 1.67253 104.786 2.18978 105.082 2.80957C105.378 3.4248 105.526 4.13574 105.526 4.94238ZM102.963 4.94238C102.963 4.59147 102.906 4.24284 102.792 3.89648C102.683 3.54557 102.484 3.23112 102.197 2.95312C101.915 2.67513 101.527 2.44954 101.035 2.27637C100.543 2.10319 99.9163 2.0166 99.1553 2.0166C98.6449 2.0166 98.196 2.05762 97.8086 2.13965C97.4212 2.21712 97.0863 2.3265 96.8037 2.46777C96.5212 2.60905 96.2842 2.77539 96.0928 2.9668C95.9014 3.15365 95.7487 3.35645 95.6348 3.5752C95.5208 3.78939 95.4388 4.01497 95.3887 4.25195C95.3431 4.48438 95.3203 4.71452 95.3203 4.94238C95.3203 5.1748 95.3431 5.40951 95.3887 5.64648C95.4388 5.88346 95.5208 6.11133 95.6348 6.33008C95.7487 6.54427 95.9014 6.74479 96.0928 6.93164C96.2842 7.11849 96.5212 7.28255 96.8037 7.42383C97.0863 7.56055 97.4212 7.66992 97.8086 7.75195C98.196 7.82943 98.6449 7.86816 99.1553 7.86816C99.9163 7.86816 100.543 7.78158 101.035 7.6084C101.527 7.43522 101.915 7.20964 102.197 6.93164C102.484 6.65365 102.683 6.34147 102.792 5.99512C102.906 5.64421 102.963 5.29329 102.963 4.94238ZM114.003 9.63184H111.05L106.299 0.239258H109.129L112.547 7.30762L115.958 0.239258H118.788L114.003 9.63184ZM130.669 9.16699C129.899 9.4222 129.129 9.60449 128.358 9.71387C127.593 9.8278 126.809 9.88477 126.007 9.88477C124.981 9.88477 124.068 9.77539 123.266 9.55664C122.468 9.33333 121.796 9.01204 121.249 8.59277C120.702 8.1735 120.285 7.66081 119.998 7.05469C119.711 6.44857 119.567 5.7627 119.567 4.99707C119.567 4.28613 119.711 3.6276 119.998 3.02148C120.29 2.41081 120.7 1.88216 121.229 1.43555C121.762 0.984375 122.404 0.633464 123.156 0.382812C123.908 0.127604 124.747 0 125.672 0C126.524 0 127.303 0.116211 128.01 0.348633C128.721 0.576497 129.329 0.916016 129.835 1.36719C130.345 1.81836 130.74 2.37435 131.018 3.03516C131.3 3.69596 131.441 4.45703 131.441 5.31836V5.94727H122.186C122.268 6.24349 122.402 6.51465 122.589 6.76074C122.78 7.00684 123.038 7.21647 123.361 7.38965C123.685 7.56283 124.081 7.69727 124.551 7.79297C125.025 7.88867 125.59 7.93652 126.246 7.93652C126.711 7.93652 127.167 7.90918 127.613 7.85449C128.06 7.79525 128.477 7.72005 128.864 7.62891C129.252 7.5332 129.6 7.42839 129.91 7.31445C130.225 7.20052 130.478 7.08659 130.669 6.97266V9.16699ZM128.919 4.08789C128.896 3.85547 128.826 3.61621 128.707 3.37012C128.593 3.11947 128.411 2.89388 128.16 2.69336C127.91 2.49284 127.581 2.32878 127.176 2.20117C126.77 2.06901 126.264 2.00293 125.658 2.00293C125.089 2.00293 124.596 2.07357 124.182 2.21484C123.767 2.35612 123.418 2.53158 123.136 2.74121C122.858 2.95085 122.641 3.17643 122.486 3.41797C122.331 3.65951 122.231 3.88281 122.186 4.08789H128.919ZM142.386 2.36523C142.317 2.34245 142.217 2.31283 142.085 2.27637C141.957 2.23535 141.807 2.19661 141.634 2.16016C141.461 2.11914 141.269 2.08496 141.06 2.05762C140.854 2.03027 140.643 2.0166 140.424 2.0166C139.968 2.0166 139.542 2.07357 139.146 2.1875C138.754 2.29688 138.387 2.44499 138.045 2.63184C137.703 2.81413 137.384 3.02376 137.088 3.26074C136.796 3.49316 136.527 3.73242 136.281 3.97852V9.63184H133.745V0.239258H136.281V1.76367C136.587 1.53581 136.899 1.31706 137.218 1.10742C137.541 0.893229 137.876 0.704102 138.223 0.540039C138.574 0.375977 138.943 0.246094 139.33 0.150391C139.717 0.0501302 140.128 0 140.561 0C140.725 0 140.891 0.00911458 141.06 0.0273438C141.233 0.0410156 141.399 0.0592448 141.559 0.0820312C141.723 0.104818 141.875 0.129883 142.017 0.157227C142.158 0.18457 142.281 0.211914 142.386 0.239258V2.36523ZM156.81 7.85449H151.573L150.691 9.63184H147.861L152.776 0.239258H155.606L160.521 9.63184H157.691L156.81 7.85449ZM152.482 6.02246H155.914L154.205 2.56348L152.482 6.02246ZM173.564 4.92871C173.564 5.53027 173.498 6.06576 173.366 6.53516C173.234 7 173.047 7.4056 172.806 7.75195C172.569 8.09831 172.282 8.39225 171.944 8.63379C171.612 8.87533 171.24 9.06901 170.83 9.21484C170.42 9.36068 169.978 9.46777 169.504 9.53613C169.03 9.59993 168.535 9.63184 168.021 9.63184H162.06V0.239258H168.007C168.522 0.239258 169.016 0.273438 169.49 0.341797C169.964 0.405599 170.406 0.510417 170.816 0.65625C171.231 0.802083 171.607 0.995768 171.944 1.2373C172.282 1.47428 172.569 1.76823 172.806 2.11914C173.047 2.46549 173.234 2.87109 173.366 3.33594C173.498 3.80078 173.564 4.33171 173.564 4.92871ZM171.008 4.92871C171.008 4.47754 170.949 4.08561 170.83 3.75293C170.716 3.42025 170.529 3.14681 170.27 2.93262C170.014 2.71387 169.679 2.55208 169.265 2.44727C168.85 2.33789 168.344 2.2832 167.747 2.2832H164.596V7.58789H167.747C168.344 7.58789 168.85 7.53548 169.265 7.43066C169.679 7.32129 170.014 7.15723 170.27 6.93848C170.529 6.71517 170.716 6.43717 170.83 6.10449C170.949 5.77181 171.008 5.37988 171.008 4.92871ZM178.418 0.239258V1.27148C178.641 1.13021 178.883 0.984375 179.143 0.833984C179.407 0.683594 179.692 0.546875 179.997 0.423828C180.307 0.300781 180.637 0.200521 180.988 0.123047C181.344 0.0410156 181.727 0 182.137 0C182.538 0 182.889 0.0432943 183.189 0.129883C183.49 0.211914 183.75 0.321289 183.969 0.458008C184.192 0.590169 184.381 0.74056 184.536 0.90918C184.691 1.07324 184.826 1.2373 184.939 1.40137C185.263 1.19173 185.582 1.00033 185.896 0.827148C186.211 0.653971 186.528 0.505859 186.847 0.382812C187.166 0.259766 187.492 0.166341 187.824 0.102539C188.157 0.0341797 188.503 0 188.863 0C189.438 0 189.95 0.0797526 190.401 0.239258C190.857 0.398763 191.242 0.617513 191.557 0.895508C191.871 1.1735 192.11 1.50163 192.274 1.87988C192.443 2.25358 192.527 2.65462 192.527 3.08301V9.63184H189.991V3.44531C189.991 3.19466 189.952 2.97819 189.875 2.7959C189.798 2.61361 189.693 2.46549 189.561 2.35156C189.433 2.23763 189.28 2.15332 189.103 2.09863C188.929 2.04395 188.745 2.0166 188.549 2.0166C187.637 2.0166 186.598 2.42676 185.432 3.24707C185.445 3.32454 185.454 3.41569 185.459 3.52051C185.468 3.62533 185.473 3.73014 185.473 3.83496V9.63184H182.937V3.39062C182.937 3.13997 182.898 2.92806 182.82 2.75488C182.743 2.57715 182.636 2.43359 182.499 2.32422C182.367 2.21484 182.212 2.13737 182.034 2.0918C181.861 2.04167 181.676 2.0166 181.48 2.0166C181.243 2.0166 180.993 2.05078 180.729 2.11914C180.469 2.1875 180.204 2.2832 179.936 2.40625C179.671 2.5293 179.409 2.67513 179.149 2.84375C178.894 3.01237 178.65 3.19466 178.418 3.39062V9.63184H175.882V0.239258H178.418ZM195.433 9.63184V0.239258H197.969V9.63184H195.433ZM209.863 9.63184V4.36816C209.863 4.01725 209.834 3.70052 209.774 3.41797C209.715 3.13086 209.604 2.88704 209.439 2.68652C209.28 2.48145 209.054 2.32422 208.763 2.21484C208.476 2.10091 208.104 2.04395 207.648 2.04395C207.302 2.04395 206.938 2.0918 206.555 2.1875C206.176 2.27865 205.8 2.40169 205.427 2.55664C205.053 2.71159 204.695 2.8916 204.354 3.09668C204.016 3.30176 203.715 3.51595 203.451 3.73926V9.63184H200.915V0.239258H203.451V1.52441C203.77 1.34212 204.11 1.16211 204.47 0.984375C204.83 0.802083 205.213 0.638021 205.618 0.492188C206.024 0.346354 206.454 0.227865 206.91 0.136719C207.366 0.0455729 207.847 0 208.353 0C208.986 0 209.551 0.077474 210.048 0.232422C210.549 0.382812 210.973 0.599284 211.319 0.881836C211.666 1.15983 211.93 1.49935 212.112 1.90039C212.299 2.29688 212.393 2.74121 212.393 3.2334V9.63184H209.863Z" fill="#CC2B52"/>
</svg>
